<?xml version="1.0" encoding="iso-8859-1"?>
<!-- Generator: Adobe Illustrator 19.0.0, SVG Export Plug-In . SVG Version: 6.00 Build 0)  -->
<svg xmlns="http://www.w3.org/2000/svg" xmlns:xlink="http://www.w3.org/1999/xlink" version="1.1" id="Layer_1" x="0px" y="0px" viewBox="0 0 512.032 512.032" style="enable-background:new 0 0 512.032 512.032;" xml:space="preserve" width="512px" height="512px">
<g>
	<g>
		<g>
			<path d="M213.333,409.616H332.8c4.719,0,8.533-3.823,8.533-8.533s-3.814-8.533-8.533-8.533H213.333     c-4.719,0-8.533,3.823-8.533,8.533S208.614,409.616,213.333,409.616z" fill="#c49dd4"/>
			<path d="M162.133,76.816c0,4.71,3.814,8.533,8.533,8.533h298.667c14.114,0,25.6,11.486,25.6,25.6v204.8     c0,4.71,3.814,8.533,8.533,8.533c4.719,0,8.533-3.823,8.533-8.533v-204.8c0-23.526-19.14-42.667-42.667-42.667H170.667     C165.948,68.283,162.133,72.106,162.133,76.816z" fill="#c49dd4"/>
			<path d="M213.333,358.416h85.333c4.719,0,8.533-3.823,8.533-8.533s-3.814-8.533-8.533-8.533h-85.333     c-4.719,0-8.533,3.823-8.533,8.533S208.614,358.416,213.333,358.416z" fill="#c49dd4"/>
			<path d="M298.667,494.949H153.6v-384c0-23.526-19.14-42.667-42.667-42.667c-23.526,0-42.667,19.14-42.667,42.667v290.133     c0,14.114-11.486,25.6-25.6,25.6s-25.6-11.486-25.6-25.6v-384H358.4v25.6c0,4.71,3.814,8.533,8.533,8.533     s8.533-3.823,8.533-8.533V8.549c0-4.71-3.814-8.533-8.533-8.533H8.533C3.814,0.016,0,3.839,0,8.549v392.533     c0,23.526,19.14,42.667,42.667,42.667c23.526,0,42.667-19.14,42.667-42.667V110.949c0-14.114,11.486-25.6,25.6-25.6     s25.6,11.486,25.6,25.6v315.733H93.867c-4.719,0-8.533,3.823-8.533,8.533s3.814,8.533,8.533,8.533h42.667v59.733     c0,4.71,3.814,8.533,8.533,8.533h153.6c4.719,0,8.533-3.823,8.533-8.533S303.386,494.949,298.667,494.949z" fill="#c49dd4"/>
			<path d="M392.533,349.883c0-4.71-3.814-8.533-8.533-8.533h-51.2c-4.719,0-8.533,3.823-8.533,8.533s3.814,8.533,8.533,8.533H384     C388.719,358.416,392.533,354.593,392.533,349.883z" fill="#c49dd4"/>
			<path d="M501.837,351.513l-17.067-17.067c-13.124-13.116-33.092-13.09-46.199,0L326.767,446.25c-1.604,1.596-2.5,3.772-2.5,6.033     v51.2c0,4.71,3.814,8.533,8.533,8.533H384c2.27,0,4.437-0.896,6.033-2.5l111.804-111.804     C515.43,384.118,515.43,365.115,501.837,351.513z M427.537,369.62l13.525,13.525l-74.129,74.138l-13.534-13.534L427.537,369.62z      M341.333,494.949v-39.134l39.134,39.134H341.333z M392.533,482.883L379,469.349l74.138-74.129l13.534,13.525L392.533,482.883z      M489.771,385.646l-11.034,11.034l-39.134-39.134l11.034-11.034c6.758-6.75,15.292-6.767,22.067,0l17.067,17.067     C496.674,370.491,496.674,378.742,489.771,385.646z" fill="#c49dd4"/>
			<path d="M409.6,298.683v-73.267l2.5,2.5c1.664,1.664,3.849,2.5,6.033,2.5c2.185,0,4.369-0.836,6.033-2.5     c3.336-3.337,3.336-8.73,0-12.066l-17.058-17.058l-0.017-0.017L330.3,121.983c-3.336-3.336-8.73-3.336-12.066,0l-76.791,76.792     l-0.017,0.017l-17.058,17.058c-3.337,3.337-3.337,8.73,0,12.066c3.337,3.336,8.73,3.336,12.066,0l2.5-2.5v73.267     c0,4.71,3.814,8.533,8.533,8.533H307.2c4.719,0,8.533-3.823,8.533-8.533v-42.667H332.8v42.667c0,4.71,3.814,8.533,8.533,8.533     h59.733C405.786,307.216,409.6,303.393,409.6,298.683z M392.533,290.149h-42.667v-42.667c0-4.71-3.814-8.533-8.533-8.533H307.2     c-4.719,0-8.533,3.823-8.533,8.533v42.667H256v-81.801l68.267-68.267l68.267,68.267V290.149z" fill="#c49dd4"/>
		</g>
	</g>
</g>
<g>
</g>
<g>
</g>
<g>
</g>
<g>
</g>
<g>
</g>
<g>
</g>
<g>
</g>
<g>
</g>
<g>
</g>
<g>
</g>
<g>
</g>
<g>
</g>
<g>
</g>
<g>
</g>
<g>
</g>
</svg>
