<?xml version="1.0" encoding="iso-8859-1"?>
<!-- Generator: Adobe Illustrator 19.0.0, SVG Export Plug-In . SVG Version: 6.00 Build 0)  -->
<svg xmlns="http://www.w3.org/2000/svg" xmlns:xlink="http://www.w3.org/1999/xlink" version="1.1" id="Layer_1" x="0px" y="0px" viewBox="0 0 512.03 512.03" style="enable-background:new 0 0 512.03 512.03;" xml:space="preserve" width="512px" height="512px">
<g>
	<g>
		<g>
			<path d="M324.267,230.415c0-4.71-3.823-8.533-8.533-8.533H179.2c-4.71,0-8.533,3.823-8.533,8.533c0,4.71,3.823,8.533,8.533,8.533     h136.533C320.444,238.948,324.267,235.125,324.267,230.415z" fill="#c49dd4"/>
			<path d="M170.667,110.948c0-4.71-3.823-8.533-8.533-8.533H76.8c-4.71,0-8.533,3.823-8.533,8.533c0,4.71,3.823,8.533,8.533,8.533     h85.333C166.844,119.482,170.667,115.659,170.667,110.948z" fill="#c49dd4"/>
			<path d="M102.4,213.348c9.412,0,17.067,7.654,17.067,17.067c0,4.71,3.823,8.533,8.533,8.533s8.533-3.823,8.533-8.533     c0-15.855-10.923-29.107-25.6-32.922v-1.212c0-4.71-3.823-8.533-8.533-8.533c-4.71,0-8.533,3.823-8.533,8.533v1.212     c-14.677,3.814-25.6,17.067-25.6,32.922c0,18.825,15.309,34.133,34.133,34.133c9.412,0,17.067,7.654,17.067,17.067     c0,9.412-7.654,17.067-17.067,17.067c-9.412,0-17.067-7.654-17.067-17.067c0-4.71-3.823-8.533-8.533-8.533     s-8.533,3.823-8.533,8.533c0,15.855,10.923,29.107,25.6,32.922v1.212c0,4.71,3.823,8.533,8.533,8.533     c4.71,0,8.533-3.823,8.533-8.533v-1.212c14.677-3.814,25.6-17.067,25.6-32.922c0-18.825-15.309-34.133-34.133-34.133     c-9.412,0-17.067-7.654-17.067-17.067C85.333,221.003,92.988,213.348,102.4,213.348z" fill="#c49dd4"/>
			<path d="M179.2,273.082c-4.71,0-8.533,3.823-8.533,8.533s3.823,8.533,8.533,8.533h51.2c4.71,0,8.533-3.823,8.533-8.533     s-3.823-8.533-8.533-8.533H179.2z" fill="#c49dd4"/>
			<path d="M307.2,392.548H42.667c-14.114,0-25.6-11.486-25.6-25.6V76.815c0-14.114,11.486-25.6,25.6-25.6h426.667     c14.114,0,25.6,11.486,25.6,25.6v204.8c0,4.71,3.823,8.533,8.533,8.533s8.533-3.823,8.533-8.533v-204.8     c0-23.526-19.14-42.667-42.667-42.667H42.667C19.14,34.148,0,53.289,0,76.815v290.133c0,23.526,19.14,42.667,42.667,42.667H307.2     c4.71,0,8.533-3.823,8.533-8.533S311.91,392.548,307.2,392.548z" fill="#c49dd4"/>
			<path d="M418.133,102.415c-4.71,0-8.533,3.823-8.533,8.533c0,4.71,3.823,8.533,8.533,8.533H435.2c4.71,0,8.533-3.823,8.533-8.533     c0-4.71-3.823-8.533-8.533-8.533H418.133z" fill="#c49dd4"/>
			<path d="M501.828,317.378l-17.067-17.067c-13.116-13.116-33.101-13.09-46.199,0L326.758,412.115     c-1.596,1.596-2.492,3.772-2.492,6.033v51.2c0,4.71,3.814,8.533,8.533,8.533H384c2.261,0,4.429-0.896,6.033-2.5l111.795-111.804     C515.43,349.984,515.43,330.98,501.828,317.378z M427.529,335.486l13.534,13.525l-74.129,74.138l-13.534-13.534L427.529,335.486z      M341.333,460.815v-39.134l39.125,39.134H341.333z M392.533,448.749L379,435.215l74.129-74.129l13.534,13.525L392.533,448.749z      M489.762,351.511l-11.034,11.034l-39.134-39.134l11.034-11.034c6.75-6.733,15.3-6.767,22.067,0l17.067,17.067     C496.674,336.356,496.674,344.608,489.762,351.511z" fill="#c49dd4"/>
			<path d="M332.8,119.482c4.71,0,8.533-3.823,8.533-8.533c0-4.71-3.823-8.533-8.533-8.533h-17.067c-4.71,0-8.533,3.823-8.533,8.533     c0,4.71,3.823,8.533,8.533,8.533H332.8z" fill="#c49dd4"/>
			<path d="M384,119.482c4.71,0,8.533-3.823,8.533-8.533c0-4.71-3.823-8.533-8.533-8.533h-17.067c-4.71,0-8.533,3.823-8.533,8.533     c0,4.71,3.823,8.533,8.533,8.533H384z" fill="#c49dd4"/>
			<path d="M409.6,230.415c0-4.71-3.823-8.533-8.533-8.533h-51.2c-4.71,0-8.533,3.823-8.533,8.533c0,4.71,3.823,8.533,8.533,8.533     h51.2C405.777,238.948,409.6,235.125,409.6,230.415z" fill="#c49dd4"/>
			<path d="M264.533,290.148h102.4c4.71,0,8.533-3.823,8.533-8.533s-3.823-8.533-8.533-8.533h-102.4     c-4.71,0-8.533,3.823-8.533,8.533S259.823,290.148,264.533,290.148z" fill="#c49dd4"/>
		</g>
	</g>
</g>
<g>
</g>
<g>
</g>
<g>
</g>
<g>
</g>
<g>
</g>
<g>
</g>
<g>
</g>
<g>
</g>
<g>
</g>
<g>
</g>
<g>
</g>
<g>
</g>
<g>
</g>
<g>
</g>
<g>
</g>
</svg>
